<svg width="1229" height="682" xmlns="http://www.w3.org/2000/svg" xmlns:xlink="http://www.w3.org/1999/xlink"><defs><circle id="b" cx="42" cy="42" r="42"/><filter x="-26.2%" y="-23.8%" width="152.4%" height="152.4%" filterUnits="objectBoundingBox" id="a"><feOffset dy="2" in="SourceAlpha" result="shadowOffsetOuter1"/><feGaussianBlur stdDeviation="7" in="shadowOffsetOuter1" result="shadowBlurOuter1"/><feColorMatrix values="0 0 0 0 0 0 0 0 0 0 0 0 0 0 0 0 0 0 0.180479677 0" in="shadowBlurOuter1"/></filter><circle id="d" cx="50" cy="42" r="42"/><filter x="-26.2%" y="-23.8%" width="152.4%" height="152.4%" filterUnits="objectBoundingBox" id="c"><feOffset dy="2" in="SourceAlpha" result="shadowOffsetOuter1"/><feGaussianBlur stdDeviation="7" in="shadowOffsetOuter1" result="shadowBlurOuter1"/><feColorMatrix values="0 0 0 0 0 0 0 0 0 0 0 0 0 0 0 0 0 0 0.180479677 0" in="shadowBlurOuter1"/></filter><circle id="f" cx="72" cy="42" r="42"/><filter x="-26.2%" y="-23.8%" width="152.4%" height="152.4%" filterUnits="objectBoundingBox" id="e"><feOffset dy="2" in="SourceAlpha" result="shadowOffsetOuter1"/><feGaussianBlur stdDeviation="7" in="shadowOffsetOuter1" result="shadowBlurOuter1"/><feColorMatrix values="0 0 0 0 0 0 0 0 0 0 0 0 0 0 0 0 0 0 0.180479677 0" in="shadowBlurOuter1"/></filter><circle id="h" cx="72" cy="42" r="42"/><filter x="-26.2%" y="-23.8%" width="152.4%" height="152.4%" filterUnits="objectBoundingBox" id="g"><feOffset dy="2" in="SourceAlpha" result="shadowOffsetOuter1"/><feGaussianBlur stdDeviation="7" in="shadowOffsetOuter1" result="shadowBlurOuter1"/><feColorMatrix values="0 0 0 0 0 0 0 0 0 0 0 0 0 0 0 0 0 0 0.180479677 0" in="shadowBlurOuter1"/></filter><circle id="j" cx="72" cy="42" r="42"/><filter x="-26.2%" y="-23.8%" width="152.4%" height="152.4%" filterUnits="objectBoundingBox" id="i"><feOffset dy="2" in="SourceAlpha" result="shadowOffsetOuter1"/><feGaussianBlur stdDeviation="7" in="shadowOffsetOuter1" result="shadowBlurOuter1"/><feColorMatrix values="0 0 0 0 0 0 0 0 0 0 0 0 0 0 0 0 0 0 0.180479677 0" in="shadowBlurOuter1"/></filter><circle id="l" cx="72" cy="42" r="42"/><filter x="-26.2%" y="-23.8%" width="152.4%" height="152.4%" filterUnits="objectBoundingBox" id="k"><feOffset dy="2" in="SourceAlpha" result="shadowOffsetOuter1"/><feGaussianBlur stdDeviation="7" in="shadowOffsetOuter1" result="shadowBlurOuter1"/><feColorMatrix values="0 0 0 0 0 0 0 0 0 0 0 0 0 0 0 0 0 0 0.180479677 0" in="shadowBlurOuter1"/></filter><circle id="n" cx="42" cy="42" r="42"/><filter x="-26.2%" y="-23.8%" width="152.4%" height="152.4%" filterUnits="objectBoundingBox" id="m"><feOffset dy="2" in="SourceAlpha" result="shadowOffsetOuter1"/><feGaussianBlur stdDeviation="7" in="shadowOffsetOuter1" result="shadowBlurOuter1"/><feColorMatrix values="0 0 0 0 0 0 0 0 0 0 0 0 0 0 0 0 0 0 0.180479677 0" in="shadowBlurOuter1"/></filter><circle id="p" cx="42" cy="42" r="42"/><filter x="-26.2%" y="-23.8%" width="152.4%" height="152.4%" filterUnits="objectBoundingBox" id="o"><feOffset dy="2" in="SourceAlpha" result="shadowOffsetOuter1"/><feGaussianBlur stdDeviation="7" in="shadowOffsetOuter1" result="shadowBlurOuter1"/><feColorMatrix values="0 0 0 0 0 0 0 0 0 0 0 0 0 0 0 0 0 0 0.180479677 0" in="shadowBlurOuter1"/></filter><circle id="r" cx="42" cy="42" r="42"/><filter x="-26.2%" y="-23.8%" width="152.4%" height="152.4%" filterUnits="objectBoundingBox" id="q"><feOffset dy="2" in="SourceAlpha" result="shadowOffsetOuter1"/><feGaussianBlur stdDeviation="7" in="shadowOffsetOuter1" result="shadowBlurOuter1"/><feColorMatrix values="0 0 0 0 0 0 0 0 0 0 0 0 0 0 0 0 0 0 0.180479677 0" in="shadowBlurOuter1"/></filter><circle id="t" cx="42" cy="42" r="42"/><filter x="-26.2%" y="-23.8%" width="152.4%" height="152.4%" filterUnits="objectBoundingBox" id="s"><feOffset dy="2" in="SourceAlpha" result="shadowOffsetOuter1"/><feGaussianBlur stdDeviation="7" in="shadowOffsetOuter1" result="shadowBlurOuter1"/><feColorMatrix values="0 0 0 0 0 0 0 0 0 0 0 0 0 0 0 0 0 0 0.180479677 0" in="shadowBlurOuter1"/></filter><circle id="v" cx="42" cy="42" r="42"/><filter x="-26.2%" y="-23.8%" width="152.4%" height="152.4%" filterUnits="objectBoundingBox" id="u"><feOffset dy="2" in="SourceAlpha" result="shadowOffsetOuter1"/><feGaussianBlur stdDeviation="7" in="shadowOffsetOuter1" result="shadowBlurOuter1"/><feColorMatrix values="0 0 0 0 0 0 0 0 0 0 0 0 0 0 0 0 0 0 0.180479677 0" in="shadowBlurOuter1"/></filter></defs><g fill="none" fill-rule="evenodd"><path d="M31 175.5c136.3-16 226-2.6 269 40 64.5 64 73 126.6 141 140.8 68 14.3 159.7-47.2 255-42 92.8 5.2 117.5 57.2 200 142.9 23 24 83 105.9 184 68 101-38 101-168.9 141-168.9" stroke="#80DBC3" stroke-width="16" opacity=".7" stroke-linecap="round"/><text font-family="Roboto-Medium, Roboto" font-size="17" font-weight="400" fill="#0A1F44" transform="translate(524 164)"><tspan x="10.7" y="106">Podcast</tspan></text><g transform="translate(524 164)"><use fill="#000" filter="url(#a)" xlink:href="#b"/><use fill="#0A1F44" xlink:href="#b"/></g><g transform="translate(546 186)" fill="#F7F9FD" fill-rule="nonzero"><path d="M20 0A20 20 0 0 0 8.4 36.3 1.3 1.3 0 0 0 9.9 34a17.3 17.3 0 1 1 20.2 0 1.3 1.3 0 1 0 1.5 2.2A20 20 0 0 0 20 0z"/><path d="M34.7 20a14.7 14.7 0 1 0-23.2 12 1.3 1.3 0 0 0 1.5-2.2 12 12 0 1 1 14 0 1.3 1.3 0 1 0 1.5 2.1c3.9-2.7 6.2-7.2 6.2-11.9z"/><circle cx="20" cy="20" r="6.7"/><path d="M20 28c-3.7 0-6.7 3-6.7 6.7v4c0 .7.6 1.3 1.4 1.3h10.6c.8 0 1.4-.6 1.4-1.3v-4c0-3.7-3-6.7-6.7-6.7z"/></g><text font-family="Roboto-Medium, Roboto" font-size="17" font-weight="400" fill="#0A1F44" transform="translate(626 387)"><tspan x="1" y="106">Social media</tspan></text><g transform="translate(626 387)"><use fill="#000" filter="url(#c)" xlink:href="#d"/><use fill="#464AC6" xlink:href="#d"/></g><g fill="#F7F9FD" fill-rule="nonzero"><path d="M692.6 425.4c-.5-1-1.6-1.7-2.8-1.7H680.6l1.9-1.6a9 9 0 0 0 2.5-9.3c-.2-.5-.4-1-.8-1.4a1 1 0 0 0-1.4-.2 10 10 0 0 0-1.6 1.7l-1.4 1.8-.2.3-.4.5a24.4 24.4 0 0 1-3.8 3.9l-1.1 1a12 12 0 0 1-2.6 1.7l-1.5.6-.3.2-1.6.6c-.2 0-.3 0-.3.2v16.5c0 .8.6 1.6 1.4 1.7l4.1.6 8.7 1.4c3.2.5 6.2-1.3 7.1-4.3l2.4-8c.2-.6.5-1.3.6-2l.6-2c.2-.8 0-1.5-.3-2.2zM663.8 423H659v20h4.8c1.2 0 2.2-1 2.2-2.1V425c0-1.1-1-2.1-2.2-2.1z"/></g><text font-family="Roboto-Medium, Roboto" font-size="17" font-weight="400" fill="#0A1F44" transform="translate(793 194)"><tspan x="5.4" y="106">Aggregated news</tspan></text><g transform="translate(793 194)"><use fill="#000" filter="url(#e)" xlink:href="#f"/><use fill="#EC382E" xlink:href="#f"/></g><g fill="#F7F9FD" fill-rule="nonzero"><path d="M841.3 232.6c-1.1 6 1 15.6 9.4 21.5 8 5.5 18 4.8 24.6.2-1.2.2-2.3.6-3.5.7-7.2 1-13.9-.2-19.8-4.7-2.6-1.9-4.6-4.5-5.8-7.5l-.2-.5-.1-.4a26 26 0 0 0 17.1 9.2c6.8.8 13.2-.2 19-4.4l2.6 2.8.5.5c.7.7 1.5.4 1.7-.5l1.1-5.2 3-13.8c.3-1.2-.2-1.7-1.4-1.4l-18.6 4.1a1 1 0 0 0-1 .7c0 .5.1 1 .4 1.2l3.2 3.2c-1.1 1-2.4 1.8-3.8 2.5a24.3 24.3 0 0 1-22.1-1 16 16 0 0 1-6.3-7.2z"/><path d="M873 226.9c0-.2 0-.3-.2-.4a.5.5 0 0 0-.4-.1H865v8.3h3.2l1 2H865v4l-2 .3v-4.2h-9.2l.2 3-1.8-.8a.7.7 0 0 1-.3-.4l-.2-1.8h-2.5c-.7 0-1.5-.2-2-.8l-1.3-1.2.1-.1h5.6l1.3-8.3H848c-.2 0-.4.2-.4.4a33 33 0 0 0-1.4 3.4c-.4 1.3-.6 2.7-.9 4a9.3 9.3 0 0 1-2.3-4.5c-.2-.8-.1-1.6.2-2.3a21.8 21.8 0 0 1 19-14.3c6.9-.7 12.8 1.8 17.7 6.8 2.2 2.3 4 5 5 8.1l-3.4.8a.5.5 0 0 1-.4-.3l-.7-1.6a.8.8 0 0 0-.9-.5h-4.5l.8 3.7-2 .4-.9-3.6zm-10.5 7.8h.5v-8.3H855.3l-.2.4a29.6 29.6 0 0 0-1.2 7.9h8.6zm.5-10.4v-7.1c-2.8.2-5.9 3.9-7 7h7zm2 0h7c-.3-2.8-4.6-7.1-7-7.1v7zm5.6-6.2l.2.3c1.4 1.5 2.5 3.4 3.3 5.3 0 .4.4.7.8.6h4c-2.2-2.8-5-5-8.2-6.2zm-21.4 6.2h4.3l.3-.2c.8-2.2 2-4.2 3.5-6a18 18 0 0 0-8 6.2z"/></g><text font-family="Roboto-Medium, Roboto" font-size="17" font-weight="400" fill="#0A1F44" transform="translate(793 513)"><tspan x="1.7" y="106">Streaming content</tspan></text><g transform="translate(793 513)"><use fill="#000" filter="url(#g)" xlink:href="#h"/><use fill="#91A428" xlink:href="#h"/></g><path d="M847.7 555c0-4.1 1.5-7.9 4-10.8.4-.5.4-1.3-.1-1.8-.6-.6-1.5-.5-2 0a19.3 19.3 0 0 0 0 25.1c.6.6 1.4.7 2 .1.5-.5.5-1.3 0-1.8-2.4-3-4-6.7-4-10.8zm-6 0c0-6 2.3-11.5 6-15.7.4-.5.4-1.4 0-1.8l-.1-.1c-.5-.5-1.4-.5-2 0a26.7 26.7 0 0 0 0 35.2c.5.5 1.5.5 2 0s.5-1.4 0-1.9c-3.6-4.2-5.9-9.7-5.9-15.7zm42.6-17.6c-.4-.5-1.4-.5-1.9 0s-.5 1.4 0 1.9a23.6 23.6 0 0 1 0 31.4c-.5.5-.5 1.4 0 1.8v.1c.5.5 1.4.5 2 0a26.7 26.7 0 0 0 0-35.2zm-4 5c-.4-.5-1.3-.6-1.8 0h-.1c-.5.5-.5 1.3 0 1.8 2.4 3 3.9 6.7 3.9 10.8 0 4.1-1.5 7.9-4 10.8-.4.5-.4 1.3.1 1.8.6.6 1.5.5 2 0a19.3 19.3 0 0 0 0-25.1zm-14.8.6a12.5 12.5 0 1 0 0 25 12.5 12.5 0 0 0 0-25zm-5.5 19v-13l11 6.5-11 6.5z" fill="#F7F9FD" fill-rule="nonzero"/><g><text font-family="Roboto-Medium, Roboto" font-size="17" font-weight="400" fill="#0A1F44" transform="translate(966 356)"><tspan x="52.3" y="106">API’s</tspan></text><g transform="translate(966 356)"><use fill="#000" filter="url(#i)" xlink:href="#j"/><use fill="#76BCEB" xlink:href="#j"/></g><g fill="#F7F9FD" fill-rule="nonzero"><path d="M1037.9 384h-3.6c-.5 0-1.1-.2-1.3-.6l-.6-.8c-.3-.4-.3-.8 0-1.2a4 4 0 0 0-.3-5.1 5.4 5.4 0 0 0-4-1.7c-1.6 0-3.1.5-4.1 1.6-.8.8-1.3 1.8-1.3 2.9 0 .9.3 1.7.8 2.4.3.3.2.8 0 1.2l-.6.8c-.3.4-.8.6-1.3.6h-5.6c-.6 0-1 .4-1 1v29.5c0 .6.4 1 1 1h21.9a3 3 0 0 0 3-3v-5.7c0-1.5-.7-2.7-2-3.4a5.2 5.2 0 0 0-4.7-.1c-.5.3-1.1.5-1.7.5-2.1 0-3.2-1.5-3.2-4.2 0-1.4.4-2.5 1.1-3.3.6-.6 1.3-.8 2.2-.8.6 0 1.1.2 1.5.4 1.1.8 3.1.6 4.5-.1 1.5-.7 2.3-2 2.3-3.4v-5.4a3 3 0 0 0-3-3.1zM1056.8 395.5c.6 0 1.1.2 1.5.4 1.1.8 3.1.6 4.5-.1 1.5-.7 2.3-2 2.3-3.4V385c0-.6-.4-1-1-1h-21c-.6 0-1 .4-1 1s.4 1 1 1h19.9v6.5c0 .8-.6 1.3-1.2 1.6-1 .5-2.1.5-2.4.3-.7-.5-1.6-.8-2.6-.8-1.4-.1-2.7.4-3.6 1.3-.8.8-1.8 2.2-1.8 4.7 0 4.6 2.7 6.2 5.2 6.2a5 5 0 0 0 2.7-.8c.5-.3 1.7-.4 2.6.1.7.4 1 .9 1 1.7v6.8h-20c-.6 0-1 .4-1 1s.4 1 1 1h21.1c.6 0 1-.4 1-1v-7.8c0-1.5-.7-2.7-2-3.4a5.2 5.2 0 0 0-4.7-.1c-.5.3-1.1.5-1.7.5-2.1 0-3.2-1.5-3.2-4.2 0-1.4.4-2.5 1.1-3.3.7-.6 1.4-.8 2.3-.8z"/></g></g><g><text font-family="Roboto-Medium, Roboto" font-size="17" font-weight="400" fill="#0A1F44" transform="translate(1089 544)"><tspan x="21.7" y="111">AI &amp; machine </tspan> <tspan x="41.2" y="133">learning </tspan></text><g transform="translate(1089 544)"><use fill="#000" filter="url(#k)" xlink:href="#l"/><use fill="#0757E7" xlink:href="#l"/></g></g><g><text font-family="Roboto-Medium, Roboto" font-size="17" font-weight="400" fill="#0A1F44" transform="translate(405 418)"><tspan x="20.4" y="106">Blogs</tspan></text><g transform="translate(405 418)"><use fill="#000" filter="url(#m)" xlink:href="#n"/><use fill="#FFC425" xlink:href="#n"/></g><path d="M427.3 443c-.7 0-1.3.6-1.3 1.4v31.2c0 .8.6 1.4 1.3 1.4h39.4c.7 0 1.3-.6 1.3-1.4v-31.2c0-.8-.6-1.4-1.3-1.4h-39.4zm28.9 1.3a1.3 1.3 0 1 1 0 2.6 1.3 1.3 0 1 1 0-2.6zm4 0a1.3 1.3 0 1 1 0 2.6 1.3 1.3 0 1 1 0-2.6zm3.9 0a1.3 1.3 0 1 1 0 2.6 1.3 1.3 0 1 1 0-2.6zm-35.6 4h37c.6 0 1.2.4 1.2 1v25.2c0 .7-.6 1.2-1.2 1.2h-37c-.6 0-1.2-.5-1.2-1.2v-25.1c0-.7.6-1.2 1.2-1.2zm1.5 2.5v15.7h15.7v-15.7H430zm18.4 0v1.3H464v-1.3h-15.7zm0 2.7v1.3H464v-1.3h-15.7zm-14.5 0a1.3 1.3 0 1 1 0 2.5 1.3 1.3 0 0 1 0-2.5zm14.5 2.6v1.3H464V456h-15.7zm-10.6 1.2c.2 0 .4 0 .5.2l2.4 2.6-4.7 5.1h-4a.7.7 0 0 1-.7-.6c0-.2 0-.4.2-.5l5.9-6.5.4-.3zm10.6 1.4v1.3H464v-1.3h-15.7zm-5.4 0c.2 0 .4 0 .5.2l1 1v5.3h-7.6l5.7-6.3.4-.2zm5.4 2.6v1.3H464v-1.3h-15.7zm0 2.6v1.3h9.1V464h-9.1zm-18.5 5.2v1.4h34.2V469h-34.2zm0 2.7v1.3h34.2v-1.3h-34.2z" fill="#F7F9FD" fill-rule="nonzero"/></g><g><text font-family="Roboto-Medium, Roboto" font-size="17" font-weight="400" fill="#0A1F44" transform="translate(353 102)"><tspan x="17.8" y="106">Online</tspan></text><g transform="translate(353 102)"><use fill="#000" filter="url(#o)" xlink:href="#p"/><use fill="#FF9225" xlink:href="#p"/></g><g fill="#F7F9FD" fill-rule="nonzero"><path d="M379.7 145h7.6c1.5 0 2.7-1.2 2.7-2.8v-5.4c0-1.6-1.2-2.8-2.7-2.8h-7.6a2.8 2.8 0 0 0-2.7 2.8v5.4c0 1.6 1.2 2.8 2.7 2.8zM393.7 136h15.6c.4 0 .7-.4.7-1s-.3-1-.7-1h-15.6c-.4 0-.7.4-.7 1s.3 1 .7 1zM393.7 139h15.6c.4 0 .7-.4.7-1s-.3-1-.7-1h-15.6c-.4 0-.7.4-.7 1s.3 1 .7 1zM393.7 141h15.6c.4 0 .7-.4.7-1s-.3-1-.7-1h-15.6c-.4 0-.7.4-.7 1s.3 1 .7 1zM400.3 144c.4 0 .7-.4.7-1s-.3-1-.7-1h-6.6c-.4 0-.7.4-.7 1s.3 1 .7 1h6.6zM392.3 146h-15.6c-.4 0-.7.4-.7 1s.3 1 .7 1h15.6c.4 0 .7-.4.7-1s-.3-1-.7-1zM392.3 149h-15.6c-.4 0-.7.4-.7 1s.3 1 .7 1h15.6c.4 0 .7-.4.7-1s-.3-1-.7-1zM392.3 152h-15.6c-.4 0-.7.4-.7 1s.3 1 .7 1h15.6c.4 0 .7-.4.7-1s-.3-1-.7-1zM402.2 148c-1 0-1.5 1-1 2.6l3.7 11.5c.4 1.1.9 1.7 1.4 1.7.5 0 1-.5 1.5-1.4l.9-2 4.8 5.5c.6.7 1.5 1.1 2.3 1.1.6 0 1.1-.2 1.5-.6 1-1 .9-3-.2-4.2l-5-5.5 1.9-.9c1.7-1 1.7-2.4-.2-3.2l-10.4-4.3-1.2-.3z"/><path d="M375.8 160H402l-.5-1.4h-25.7c-.8 0-1.4-.6-1.4-1.4v-28.9h36.2v22l1.4.5v-26c0-1.5-1.3-2.8-2.8-2.8h-33.4a2.8 2.8 0 0 0-2.8 2.8v32.4c0 1.5 1.3 2.8 2.8 2.8zm31.3-35.9c.6 0 1 .5 1 1 0 .6-.4 1.1-1 1.1a1 1 0 0 1-1-1c0-.6.4-1 1-1zm-3.8 0c.6 0 1 .5 1 1 0 .6-.4 1.1-1 1.1a1 1 0 0 1-1-1c0-.6.4-1 1-1z"/></g></g><g><text font-family="Roboto-Medium, Roboto" font-size="17" font-weight="400" fill="#0A1F44" transform="translate(198 288)"><tspan x="31.3" y="106">TV</tspan></text><g transform="translate(198 288)"><use fill="#000" filter="url(#q)" xlink:href="#r"/><use fill="#9251AC" xlink:href="#r"/></g><path d="M263 319.7c0-2-1.6-3.6-3.7-3.6h-14.9l8-8a1.8 1.8 0 1 0-2.6-2.6l-8.8 8.8-8.8-8.8a1.8 1.8 0 1 0-2.6 2.6l8 8h-15c-2 0-3.6 1.6-3.6 3.6v22c0 2 1.6 3.7 3.7 3.7h1.8v1.8c0 1 .8 1.9 1.8 1.9s1.9-.9 1.9-1.9v-1.8h25.6v1.8c0 1 .9 1.9 1.9 1.9 1 0 1.8-.9 1.8-1.9v-1.8h1.8c2 0 3.7-1.7 3.7-3.7v-22zM248.3 340c0 1-.8 1.8-1.8 1.8h-22c-1 0-1.8-.8-1.8-1.8v-18.3c0-1 .8-1.9 1.8-1.9h22c1 0 1.8.9 1.8 1.9v18.3zm11 0c0 1-.8 1.8-1.8 1.8h-3.7c-1 0-1.8-.8-1.8-1.8v-3.6c0-1 .8-1.9 1.8-1.9h3.7c1 0 1.8.8 1.8 1.9v3.6zm-1.8-9.2h-3.7a1.8 1.8 0 1 1 0-3.6h3.7a1.8 1.8 0 1 1 0 3.6zm0-7.3h-3.7a1.8 1.8 0 1 1 0-3.7h3.7a1.8 1.8 0 1 1 0 3.7z" fill="#F7F9FD" fill-rule="nonzero"/></g><g><text font-family="Roboto-Medium, Roboto" font-size="17" font-weight="400" fill="#0A1F44" transform="translate(132 12)"><tspan x="20.3" y="106">Radio</tspan></text><g transform="translate(132 12)"><use fill="#000" filter="url(#s)" xlink:href="#t"/><use fill="#28A486" xlink:href="#t"/></g><path d="M163.5 34a1 1 0 0 0-1 .9c0 .5.3.9.8 1l18 5H157a5 5 0 0 0-5 4.9V63a5 5 0 0 0 5 4.9h34a5 5 0 0 0 5-5V45.9a5 5 0 0 0-5-5h-2.3L163.7 34a1 1 0 0 0-.3 0zM179 46.6c1.1 0 2 .9 2 2 0 1-.9 1.9-2 1.9a2 2 0 0 1-2-2c0-1 1-1.9 2-1.9zm4.4 0c1 0 2 .9 2 2 0 1-1 1.9-2 1.9a2 2 0 0 1-2-2c0-1 .9-1.9 2-1.9zm4.4 0c1 0 2 .9 2 2 0 1-1 1.9-2 1.9a2 2 0 0 1-2-2c0-1 .9-1.9 2-1.9zm-21.5 1.3c3.6 0 6.5 2.9 6.5 6.4 0 3.4-3 6.2-6.5 6.2a6.4 6.4 0 0 1-6.5-6.2c0-3.5 3-6.4 6.5-6.4zm11.4 5.2h10.9c.3 0 .7.2.8.5.2.3.2.6 0 1a1 1 0 0 1-.8.4h-10.8a1 1 0 0 1-1-.9c-.1-.5.3-1 .9-1zm0 4.6h10.9c.3 0 .7.1.8.4.2.3.2.7 0 1a1 1 0 0 1-.8.5h-10.8a1 1 0 0 1-1-.5 1 1 0 0 1 0-1c.2-.2.5-.4.9-.4z" fill="#F7F9FD"/></g><g><text font-family="Roboto-Medium, Roboto" font-size="17" font-weight="400" fill="#0A1F44" transform="translate(14 207)"><tspan x="23.9" y="106">Print</tspan></text><g transform="translate(14 207)"><use fill="#000" filter="url(#u)" xlink:href="#v"/><use fill="#1BA0F2" xlink:href="#v"/></g><path d="M37 263.5c0 1.8 1.4 3.3 3.2 3.3h28.4c3.6 0 6.4-3 6.4-6.5v-18c0-1.7-1.4-3.2-3.2-3.2h-3.2v3.3h3.2v17.9c0 1.8-1.4 3.2-3.1 3.2a3.2 3.2 0 0 1-3.2-3.2v-26c0-1.8-1.4-3.3-3.2-3.3H40.2a3.2 3.2 0 0 0-3.2 3.3v29.2zm16.1-24.7h8c.9 0 1.6.8 1.6 1.7 0 1-.7 1.7-1.6 1.7h-8c-.9 0-1.6-.8-1.6-1.7 0-1 .7-1.7 1.6-1.7zm-12.7-4.4h7.8v7.8h-7.8v-7.8zm1.5 11.1h19.2c.9 0 1.6.8 1.6 1.7 0 1-.7 1.7-1.6 1.7H42c-.8 0-1.5-.8-1.5-1.7 0-1 .7-1.7 1.5-1.7zm0 6.7h19.2c.9 0 1.6.8 1.6 1.7 0 1-.7 1.7-1.6 1.7H42c-.8 0-1.5-.7-1.5-1.7s.7-1.7 1.5-1.7zm0 6.7h19.2c.9 0 1.6.8 1.6 1.7 0 1-.7 1.7-1.6 1.7H42c-.8 0-1.5-.7-1.5-1.7 0-.9.7-1.7 1.5-1.7z" fill="#F7F9FD" fill-rule="nonzero"/></g><g fill="#FFF" fill-rule="nonzero"><path d="M1147.5 605c2.4 0 4.5-1.6 5.2-3.9h4a5.4 5.4 0 0 0 5.3 3.9c3 0 5.5-2.5 5.5-5.5 0-.5 0-1-.2-1.4l8.2-8.2 1 .1c3 0 5.5-2.5 5.5-5.5s-2.5-5.4-5.5-5.4-5.4 2.4-5.4 5.4c0 1.5.5 2.8 1.5 3.8l-7 7c-1-.7-2.2-1.2-3.6-1.2a5.4 5.4 0 0 0-5.2 3.9h-4.1a5.4 5.4 0 0 0-5.2-3.9c-3 0-5.5 2.5-5.5 5.5s2.5 5.4 5.5 5.4zm29-22.8c1.3 0 2.3 1 2.3 2.3 0 1.3-1 2.3-2.3 2.3-1.2 0-2.3-1-2.3-2.3 0-1.2 1-2.3 2.3-2.3zm-14.5 15c1.3 0 2.3 1.1 2.3 2.4 0 1.2-1 2.3-2.3 2.3-1.3 0-2.3-1-2.3-2.3 0-1.3 1-2.3 2.3-2.3zm-14.5 0c1.2 0 2.3 1.1 2.3 2.4 0 1.2-1 2.3-2.3 2.3-1.3 0-2.3-1-2.3-2.3 0-1.3 1-2.3 2.3-2.3zM1147.5 575c3 0 5.4-2.5 5.4-5.5s-2.4-5.5-5.4-5.5c-3 0-5.5 2.5-5.5 5.5s2.5 5.4 5.5 5.4zm0-7.8c1.2 0 2.3 1 2.3 2.3 0 1.3-1 2.3-2.3 2.3-1.3 0-2.3-1-2.3-2.3 0-1.2 1-2.3 2.3-2.3z"/><path d="M1147.5 590c3 0 5.4-2.5 5.4-5.5 0-1-.2-2-.7-2.8l7.3-7.3c.8.3 1.6.5 2.5.5 2.5 0 4.5-1.6 5.2-3.8h4.1a5.4 5.4 0 0 0 5.2 3.8c3 0 5.5-2.4 5.5-5.4 0-3-2.5-5.5-5.5-5.5a5.4 5.4 0 0 0-5.2 3.9h-4a5.4 5.4 0 0 0-5.3-3.9c-3 0-5.5 2.5-5.5 5.5 0 1 .3 1.9.8 2.7l-7.5 7.4c-.7-.3-1.5-.5-2.3-.5-3 0-5.5 2.4-5.5 5.4 0 3 2.5 5.5 5.5 5.5zm29-22.8c1.3 0 2.3 1 2.3 2.3 0 1.3-1 2.3-2.3 2.3-1.2 0-2.3-1-2.3-2.3 0-1.2 1-2.3 2.3-2.3zm-14.5 0c1.3 0 2.3 1 2.3 2.3 0 1.3-1 2.3-2.3 2.3-1.3 0-2.3-1-2.3-2.3 0-1.2 1-2.3 2.3-2.3zm-14.5 15c1.2 0 2.3 1 2.3 2.3 0 1.3-1 2.3-2.3 2.3-1.3 0-2.3-1-2.3-2.3 0-1.2 1-2.3 2.3-2.3z"/><path d="M1162 579c-3 0-5.5 2.5-5.5 5.5s2.5 5.5 5.5 5.5 5.5-2.5 5.5-5.5-2.5-5.4-5.5-5.4zm0 7.8c-1.3 0-2.3-1-2.3-2.3 0-1.2 1-2.3 2.3-2.3 1.3 0 2.3 1 2.3 2.3 0 1.3-1 2.3-2.3 2.3zM1182 599.6c0-3-2.5-5.5-5.5-5.5s-5.4 2.5-5.4 5.5 2.4 5.5 5.4 5.5c3-.1 5.5-2.5 5.5-5.5zm-5.5 2.2c-1.2 0-2.3-1-2.3-2.3 0-1.2 1-2.3 2.3-2.3 1.3 0 2.3 1 2.3 2.3 0 1.3-1 2.3-2.3 2.3z"/></g></g></svg>