<?xml version="1.0" encoding="UTF-8"?>
<svg width="82px" height="98px" viewBox="0 0 82 98" version="1.1" xmlns="http://www.w3.org/2000/svg" xmlns:xlink="http://www.w3.org/1999/xlink">
    <!-- Generator: Sketch 54.1 (76490) - https://sketchapp.com -->
    <title>Group 16</title>
    <desc>Created with Sketch.</desc>
    <g id="Desktop" stroke="none" stroke-width="1" fill="none" fill-rule="evenodd">
        <g id="Career-Copy" transform="translate(-241.000000, -2736.000000)">
            <g id="Oval-Copy-3" transform="translate(241.000000, 2670.000000)">
                <g id="Group-16" transform="translate(-16.000000, 66.000000)">
                    <circle id="Oval" fill="#9251AC" cx="49" cy="49" r="49"></circle>
                    <path d="M52,29 C40.9684211,29 32,37.9684211 32,49 C32,60.0315789 40.9684211,69 52,69 C63.0315789,69 72,60.0315789 72,49 C72,37.9684211 63.0315789,29 52,29 Z M55.8736842,56.7052632 L55.7473684,56.8315789 C55.0315789,57.4631579 54.1473684,57.8842105 53.1789474,58.0947368 L53.1789474,60.8315789 L50.3157895,60.8315789 L50.3157895,58.0105263 C49.5157895,57.8 48.8,57.4210526 48.1684211,56.9157895 C47.2,56.1157895 46.6105263,55.0210526 46.4421053,53.8421053 L49.3894737,53.4210526 C49.4315789,53.8842105 49.6842105,54.3052632 50.1052632,54.6421053 C51.1578947,55.4842105 52.8421053,55.4842105 53.8105263,54.6 C54.4,54.0526316 54.6947368,53.2947368 54.6526316,52.5368421 C54.6105263,51.8210526 54.2736842,51.1894737 53.6842105,50.7263158 C52.9684211,50.2210526 52.2947368,50.0526316 51.4947368,49.8842105 C50.4421053,49.6315789 49.2210526,49.3368421 48.1263158,48.2421053 C47.0736842,47.1473684 46.5263158,45.8 46.5684211,44.4947368 C46.6105263,43.2736842 47.1578947,42.1368421 48.1263158,41.2526316 L48.1684211,41.2105263 C48.2105263,41.1684211 48.2105263,41.1684211 48.2105263,41.1684211 C48.8,40.6631579 49.5578947,40.3263158 50.3157895,40.0736842 L50.3157895,37.2105263 L53.1789474,37.2105263 L53.1789474,40.0315789 C54.1052632,40.2421053 54.9052632,40.7052632 55.6210526,41.2947368 C56.3368421,41.9263158 56.8421053,42.7263158 57.0947368,43.6105263 L54.1052632,44.0736842 C54.0210526,43.8631579 53.8526316,43.6947368 53.6842105,43.5263158 C52.7157895,42.6842105 51.0736842,42.6842105 50.1052632,43.4842105 C49.8105263,43.7789474 49.5157895,44.1578947 49.5157895,44.6631579 C49.4736842,45.1684211 49.7684211,45.7157895 50.2315789,46.2210526 C50.6947368,46.7263158 51.2,46.8526316 52.1684211,47.0631579 C53.0947368,47.2736842 54.2736842,47.5263158 55.4526316,48.4105263 C56.7157895,49.3368421 57.5157895,50.8105263 57.6,52.4105263 C57.6421053,53.9684211 57.0526316,55.5263158 55.8736842,56.7052632 Z" id="Shape" fill="#FFFFFF" fill-rule="nonzero"></path>
                </g>
            </g>
        </g>
    </g>
</svg>