<?xml version="1.0" encoding="UTF-8"?>
<svg width="82px" height="98px" viewBox="0 0 82 98" version="1.1" xmlns="http://www.w3.org/2000/svg" xmlns:xlink="http://www.w3.org/1999/xlink">
    <!-- Generator: Sketch 54.1 (76490) - https://sketchapp.com -->
    <title>Group 17</title>
    <desc>Created with Sketch.</desc>
    <g id="Desktop" stroke="none" stroke-width="1" fill="none" fill-rule="evenodd">
        <g id="Career-Copy" transform="translate(-1052.000000, -2736.000000)">
            <g id="Oval-Copy-5" transform="translate(1052.000000, 2670.000000)">
                <g id="Group-17" transform="translate(-16.000000, 66.000000)">
                    <circle id="Oval" fill="#0A1F44" cx="49" cy="49" r="49"></circle>
                    <g id="Group" transform="translate(29.000000, 27.000000)"></g>
                    <path d="M29,69.4390244 L32.902439,69.4390244 L32.902439,64.0731707 L36.804878,64.0731707 L36.804878,69.4390244 L47.0487805,69.4390244 L47.0487805,39.6829268 L29,39.6829268 L29,69.4390244 Z M40.2195122,42.1219512 L44.6097561,42.1219512 L44.6097561,46.0243902 L40.2195122,46.0243902 L40.2195122,42.1219512 Z" id="Shape" fill="#FFFFFF" fill-rule="nonzero"></path>
                    <path d="M50.9512195,27 L50.9512195,69.4390244 L54.3658537,69.4390244 L54.3658537,64.0731707 L58.7560976,64.0731707 L58.7560976,69.4390244 L69,69.4390244 L69,27 L50.9512195,27 Z M61.195122,33.3414634 L57.2926829,33.3414634 L57.2926829,29.4390244 L61.195122,29.4390244 L61.195122,33.3414634 Z M66.0731707,40.6585366 L62.6585366,40.6585366 L62.6585366,34.3170732 L66.0731707,34.3170732 L66.0731707,40.6585366 Z M66.0731707,33.3414634 L62.6585366,33.3414634 L62.6585366,29.4390244 L66.0731707,29.4390244 L66.0731707,33.3414634 Z" id="Shape" fill="#FFFFFF" fill-rule="nonzero"></path>
                </g>
            </g>
        </g>
    </g>
</svg>