<?xml version="1.0" encoding="UTF-8"?>
<svg width="82px" height="98px" viewBox="0 0 82 98" version="1.1" xmlns="http://www.w3.org/2000/svg" xmlns:xlink="http://www.w3.org/1999/xlink">
    <!-- Generator: Sketch 54.1 (76490) - https://sketchapp.com -->
    <title>Group 5</title>
    <desc>Created with Sketch.</desc>
    <g id="Desktop" stroke="none" stroke-width="1" fill="none" fill-rule="evenodd">
        <g id="Career-Copy" transform="translate(-1052.000000, -2334.000000)">
            <g id="Oval-Copy-2" transform="translate(1052.000000, 2268.000000)">
                <g id="Group-5" transform="translate(-16.000000, 66.000000)">
                    <circle id="Oval" fill="#18A0FF" cx="49" cy="49" r="49"></circle>
                    <path d="M68.3759597,46.4919821 C68.05596,46.2879823 65.5319626,44.7799838 64.5319636,44.3199843 L63.2919649,41.3199874 C63.6599645,40.3279884 64.3679638,37.5479913 64.4919637,37.0639917 C64.5929267,36.6162612 64.4569939,36.1480482 64.131964,35.823993 L62.175966,33.879995 C61.8527163,33.5536077 61.3837445,33.4174546 60.9359673,33.5199954 C60.5679677,33.6039953 57.7359706,34.3199946 56.6799717,34.7199941 L53.6799747,33.4799954 C53.2439752,32.5199964 51.7759767,30.0599989 51.507977,29.6359993 C51.2670723,29.2414111 50.8382926,29.0005067 50.3759781,29 L47.6239809,29 C47.1646373,29.0002301 46.7374224,29.2357267 46.4919821,29.6239994 C46.2879823,29.943999 44.7799838,32.4679965 44.3199843,33.4679954 L41.3199874,34.7079942 C40.3279884,34.3399945 37.5479913,33.6319953 37.0639917,33.5079954 C36.6162612,33.4070324 36.1480482,33.5429652 35.823993,33.867995 L33.879995,35.823993 C33.5536077,36.1472427 33.4174546,36.6162146 33.5199954,37.0639917 C33.6039953,37.4319914 34.3199946,40.2639885 34.7199941,41.3199874 L33.4799954,44.3199843 C32.5199964,44.7559839 30.0599989,46.2239824 29.6359993,46.4919821 C29.2414111,46.7328868 29.0005067,47.1616664 29,47.6239809 L29,50.3719781 C29.0002301,50.8313217 29.2357267,51.2585367 29.6239994,51.503977 C29.943999,51.7079768 32.4679965,53.2159752 33.4679954,53.6759747 L34.7079942,56.6759717 C34.3399945,57.6679707 33.6319953,60.4479678 33.5079954,60.9319673 C33.4070324,61.3796979 33.5429652,61.8479108 33.867995,62.171966 L35.811993,64.1159641 C36.1352427,64.4423513 36.6042146,64.5785044 37.0519918,64.4759637 C37.4199914,64.3919638 40.2519885,63.6759645 41.3079874,63.2759649 L44.3079843,64.5159636 C44.7439839,65.4759627 46.2119824,67.9359601 46.4799821,68.3599597 C46.7221187,68.7597465 47.156593,69.0028091 47.6239809,68.9999591 L50.3719781,68.9999591 C50.8313217,68.9997289 51.2585367,68.7642324 51.503977,68.3759597 C51.7079768,68.05596 53.2159752,65.5319626 53.6759747,64.5319636 L56.6759717,63.2919649 C57.6679707,63.6599645 60.4479678,64.3679638 60.9319673,64.4919637 C61.3796979,64.5929267 61.8479108,64.4569939 62.171966,64.131964 L64.1159641,62.187966 C64.4423513,61.8647163 64.5785044,61.3957445 64.4759637,60.9479673 C64.3919638,60.5799677 63.6759645,57.7479706 63.2759649,56.6919717 L64.5159636,53.6919747 C65.4759627,53.2559752 67.9359601,51.7879767 68.3599597,51.519977 C68.7597465,51.2778404 69.0028091,50.8433661 68.9999591,50.3759781 L68.9999591,47.6239809 C69.0035776,47.1636544 68.7671183,46.734693 68.3759597,46.4919821 Z M48.9999795,57.7079706 C44.1862736,57.7035503 40.2875768,53.797688 40.2919958,48.983982 C40.2964147,44.170276 44.202276,40.2715782 49.015982,40.2759958 C53.8296879,40.2804134 57.7283868,44.1862736 57.7239706,48.9999795 C57.7129469,53.8109426 53.8109548,57.7057784 48.9999795,57.7079706 L48.9999795,57.7079706 Z" id="Shape" fill="#FFFFFF" fill-rule="nonzero"></path>
                </g>
            </g>
        </g>
    </g>
</svg>