<?xml version="1.0" encoding="UTF-8"?>
<svg width="82px" height="98px" viewBox="0 0 82 98" version="1.1" xmlns="http://www.w3.org/2000/svg" xmlns:xlink="http://www.w3.org/1999/xlink">
    <!-- Generator: Sketch 54.1 (76490) - https://sketchapp.com -->
    <title>Group 2</title>
    <desc>Created with Sketch.</desc>
    <g id="Desktop" stroke="none" stroke-width="1" fill="none" fill-rule="evenodd">
        <g id="Career-Copy" transform="translate(-648.000000, -2334.000000)">
            <g id="Oval-Copy" transform="translate(648.000000, 2268.000000)">
                <g id="Group-2" transform="translate(-16.000000, 66.000000)">
                    <circle id="Oval" fill="#E56D66" cx="49" cy="49" r="49"></circle>
                    <path d="M33.4444444,56.7521238 L33.4444444,54.5201238 L37.8888889,55.7938328 L37.8888889,58.9783282 C37.8888889,63.9026378 41.8685778,67.8947368 46.7777778,67.8947368 C51.0526667,67.8947368 54.6228889,64.8676161 55.474,60.8338328 L64.5555556,63.4365325 L64.5555556,65.6685325 L69,65.6685325 L69,30 L64.5555556,30 L64.5555556,32.2291022 L33.4444444,41.1455108 L33.4444444,38.9164087 L29,38.9164087 L29,56.7521238 L33.4444444,56.7521238 Z M50.0526316,59.8824903 L41.6315789,57.3684211 L41.6315789,59.2630916 C41.6315789,61.7048756 43.5259297,63.6842105 45.8627321,63.6842105 C47.9984067,63.6842105 49.76449,62.0309331 50.0526316,59.8824903 Z" id="Shape" fill="#FFFFFF"></path>
                </g>
            </g>
        </g>
    </g>
</svg>