<?xml version="1.0" encoding="UTF-8"?>
<svg width="82px" height="98px" viewBox="0 0 82 98" version="1.1" xmlns="http://www.w3.org/2000/svg" xmlns:xlink="http://www.w3.org/1999/xlink">
    <!-- Generator: Sketch 54.1 (76490) - https://sketchapp.com -->
    <title>Group</title>
    <desc>Created with Sketch.</desc>
    <g id="Desktop" stroke="none" stroke-width="1" fill="none" fill-rule="evenodd">
        <g id="Career-Copy" transform="translate(-241.000000, -2334.000000)">
            <g id="Oval" transform="translate(241.000000, 2268.000000)">
                <g id="Group" transform="translate(-16.000000, 66.000000)">
                    <circle id="Oval" fill="#28A486" cx="49" cy="49" r="49"></circle>
                    <path d="M37.4736842,69 C39.9473684,69 42,67.3684211 42.6842105,65.1052632 L46.7894737,65.1052632 C47.4736842,67.3684211 49.5263158,69 52,69 C55,69 57.4736842,66.5263158 57.4736842,63.5263158 C57.4736842,63 57.4210526,62.5263158 57.2631579,62.1052632 L65.4736842,53.8947368 C65.8421053,53.9473684 66.1578947,54 66.5263158,54 C69.5263158,54 72,51.5263158 72,48.5263158 C72,45.5263158 69.5263158,43.0526316 66.5263158,43.0526316 C63.5263158,43.0526316 61.0526316,45.5263158 61.0526316,48.5263158 C61.0526316,50 61.6315789,51.3157895 62.5789474,52.3157895 L55.5263158,59.3684211 C54.5789474,58.5789474 53.3684211,58.1052632 52,58.1052632 C49.5263158,58.1052632 47.4736842,59.7368421 46.7894737,62 L42.6842105,62 C42,59.7368421 39.9473684,58.1052632 37.4736842,58.1052632 C34.4736842,58.1052632 32,60.5789474 32,63.5789474 C32,66.5789474 34.4736842,69 37.4736842,69 Z M66.5263158,46.2105263 C67.7894737,46.2105263 68.8421053,47.2631579 68.8421053,48.5263158 C68.8421053,49.7894737 67.7894737,50.8421053 66.5263158,50.8421053 C65.2631579,50.8421053 64.2105263,49.7894737 64.2105263,48.5263158 C64.2105263,47.2631579 65.2631579,46.2105263 66.5263158,46.2105263 Z M52,61.2631579 C53.2631579,61.2631579 54.3157895,62.3157895 54.3157895,63.5789474 C54.3157895,64.8421053 53.2631579,65.8947368 52,65.8947368 C50.7368421,65.8947368 49.6842105,64.8421053 49.6842105,63.5789474 C49.6842105,62.3157895 50.7368421,61.2631579 52,61.2631579 Z M37.4736842,61.2631579 C38.7368421,61.2631579 39.7894737,62.3157895 39.7894737,63.5789474 C39.7894737,64.8421053 38.7368421,65.8947368 37.4736842,65.8947368 C36.2105263,65.8947368 35.1578947,64.8421053 35.1578947,63.5789474 C35.1578947,62.3157895 36.2105263,61.2631579 37.4736842,61.2631579 Z" id="Shape" fill="#FFFFFF" fill-rule="nonzero"></path>
                    <path d="M37.4736842,38.9473684 C40.4736842,38.9473684 42.9473684,36.4736842 42.9473684,33.4736842 C42.9473684,30.4736842 40.4736842,28 37.4736842,28 C34.4736842,28 32,30.4736842 32,33.4736842 C32,36.5263158 34.4736842,38.9473684 37.4736842,38.9473684 Z M37.4736842,31.2105263 C38.7368421,31.2105263 39.7894737,32.2631579 39.7894737,33.5263158 C39.7894737,34.7894737 38.7368421,35.8421053 37.4736842,35.8421053 C36.2105263,35.8421053 35.1578947,34.7894737 35.1578947,33.5263158 C35.1578947,32.2631579 36.2105263,31.2105263 37.4736842,31.2105263 Z" id="Shape" fill="#FFFFFF" fill-rule="nonzero"></path>
                    <path d="M37.4736842,54 C40.4736842,54 42.9473684,51.5263158 42.9473684,48.5263158 C42.9473684,47.5263158 42.6842105,46.5789474 42.1578947,45.7368421 L49.5263158,38.3684211 C50.2631579,38.7368421 51.1052632,38.9473684 52,38.9473684 C54.4736842,38.9473684 56.5263158,37.3157895 57.2105263,35.0526316 L61.3157895,35.0526316 C62,37.3157895 64.0526316,38.9473684 66.5263158,38.9473684 C69.5263158,38.9473684 72,36.4736842 72,33.4736842 C72,30.4736842 69.5263158,28 66.5263158,28 C64.0526316,28 62,29.6315789 61.3157895,31.8947368 L57.2105263,31.8947368 C56.5263158,29.6315789 54.4736842,28 52,28 C49,28 46.5263158,30.4736842 46.5263158,33.4736842 C46.5263158,34.4736842 46.7894737,35.3684211 47.2631579,36.1578947 L39.8421053,43.6315789 C39.1052632,43.2631579 38.3157895,43.1052632 37.4736842,43.1052632 C34.4736842,43.0526316 32,45.5263158 32,48.5263158 C32,51.5263158 34.4736842,54 37.4736842,54 Z M66.5263158,31.2105263 C67.7894737,31.2105263 68.8421053,32.2631579 68.8421053,33.5263158 C68.8421053,34.7894737 67.7894737,35.8421053 66.5263158,35.8421053 C65.2631579,35.8421053 64.2105263,34.7894737 64.2105263,33.5263158 C64.2105263,32.2631579 65.2631579,31.2105263 66.5263158,31.2105263 Z M52,31.2105263 C53.2631579,31.2105263 54.3157895,32.2631579 54.3157895,33.5263158 C54.3157895,34.7894737 53.2631579,35.8421053 52,35.8421053 C50.7368421,35.8421053 49.6842105,34.7894737 49.6842105,33.5263158 C49.6842105,32.2631579 50.7368421,31.2105263 52,31.2105263 Z M37.4736842,46.2105263 C38.7368421,46.2105263 39.7894737,47.2631579 39.7894737,48.5263158 C39.7894737,49.7894737 38.7368421,50.8421053 37.4736842,50.8421053 C36.2105263,50.8421053 35.1578947,49.7894737 35.1578947,48.5263158 C35.1578947,47.2631579 36.2105263,46.2105263 37.4736842,46.2105263 Z" id="Shape" fill="#FFFFFF" fill-rule="nonzero"></path>
                    <path d="M52,43.0526316 C49,43.0526316 46.5263158,45.5263158 46.5263158,48.5263158 C46.5263158,51.5263158 49,54 52,54 C55,54 57.4736842,51.5263158 57.4736842,48.5263158 C57.4736842,45.5263158 55,43.0526316 52,43.0526316 Z M52,50.8421053 C50.7368421,50.8421053 49.6842105,49.7894737 49.6842105,48.5263158 C49.6842105,47.2631579 50.7368421,46.2105263 52,46.2105263 C53.2631579,46.2105263 54.3157895,47.2631579 54.3157895,48.5263158 C54.3157895,49.7894737 53.2631579,50.8421053 52,50.8421053 Z" id="Shape" fill="#FFFFFF" fill-rule="nonzero"></path>
                    <path d="M72,63.5789474 C72,60.5789474 69.5263158,58.1052632 66.5263158,58.1052632 C63.5263158,58.1052632 61.0526316,60.5789474 61.0526316,63.5789474 C61.0526316,66.5789474 63.5263158,69.0526316 66.5263158,69.0526316 C69.5263158,69 72,66.5789474 72,63.5789474 Z M66.5263158,65.8421053 C65.2631579,65.8421053 64.2105263,64.7894737 64.2105263,63.5263158 C64.2105263,62.2631579 65.2631579,61.2105263 66.5263158,61.2105263 C67.7894737,61.2105263 68.8421053,62.2631579 68.8421053,63.5263158 C68.8421053,64.7894737 67.7894737,65.8421053 66.5263158,65.8421053 Z" id="Shape" fill="#FFFFFF" fill-rule="nonzero"></path>
                </g>
            </g>
        </g>
    </g>
</svg>