<?xml version="1.0" encoding="UTF-8"?>
<svg width="82px" height="98px" viewBox="0 0 82 98" version="1.1" xmlns="http://www.w3.org/2000/svg" xmlns:xlink="http://www.w3.org/1999/xlink">
    <!-- Generator: Sketch 54.1 (76490) - https://sketchapp.com -->
    <title>Oval 2</title>
    <desc>Created with Sketch.</desc>
    <g id="Desktop" stroke="none" stroke-width="1" fill="none" fill-rule="evenodd">
        <g id="Career-Copy" transform="translate(-648.000000, -2736.000000)" fill="#464AC6">
            <g id="Oval-Copy-4" transform="translate(648.000000, 2670.000000)">
                <path d="M33.9732143,95.1875714 C23.405819,95.7232381 15.0000001,104.457348 15.0000001,115.15781 C15.0000001,126.203429 23.9543095,135.15781 35,135.15781 C40.1776667,135.15781 44.9006381,133.192476 48.452381,129.964333 L34.3303571,115.827476 C34.1580095,115.655095 34.047619,115.42081 34.047619,115.15781 L34.047619,95.1875714 C34.0229048,95.1885238 33.9978952,95.1861429 33.9732143,95.1875714 Z M35.952381,95.1875714 L35.952381,113.506024 L51.8154762,104.339357 C48.4176476,99.068419 42.6116667,95.5015714 35.952381,95.1875714 Z M52.7678571,105.991143 L36.547619,115.351286 L49.8065476,128.61019 C53.0346857,125.058429 55,120.335429 55,115.15781 C55,111.853638 54.1866762,108.737333 52.7678571,105.991143 Z M33,164 C60.0619527,164 82,142.061953 82,115 C82,87.9380473 60.0619527,66 33,66 C5.93804726,66 -16,87.9380473 -16,115 C-16,142.061953 5.93804726,164 33,164 Z" id="Oval-2"></path>
            </g>
        </g>
    </g>
</svg>