<?xml version="1.0" encoding="UTF-8"?>
<svg width="140px" height="39px" viewBox="0 0 140 39" version="1.1" xmlns="http://www.w3.org/2000/svg" xmlns:xlink="http://www.w3.org/1999/xlink">
    <!-- Generator: Sketch 55.1 (78136) - https://sketchapp.com -->
    <title>Group 22</title>
    <desc>Created with Sketch.</desc>
    <defs>
        <polygon id="path-1" points="0 0.818222222 25.6092115 0.818222222 25.6092115 31.2783622 0 31.2783622"></polygon>
        <polygon id="path-3" points="0.923222222 0.818222222 6.125 0.818222222 6.125 6.06262222 0.923222222 6.06262222"></polygon>
        <polygon id="path-5" points="0.0269111111 0.818222222 5.22868889 0.818222222 5.22868889 6.06262222 0.0269111111 6.06262222"></polygon>
        <polygon id="path-7" points="0.6916 0.655511111 18.158 0.655511111 18.158 23.4972889 0.6916 23.4972889"></polygon>
        <polygon id="path-9" points="0.881066667 0.818222222 12.0312889 0.818222222 12.0312889 31.2739778 0.881066667 31.2739778"></polygon>
    </defs>
    <g id="Symbols" stroke="none" stroke-width="1" fill="none" fill-rule="evenodd">
        <g id="footer" transform="translate(-246.000000, -95.000000)">
            <g id="Group-22" transform="translate(246.000000, 94.000000)">
                <g id="Group-28" transform="translate(0.000000, 0.000000)">
                    <path d="M12.5870889,38.9372667 C11.6677556,38.0179333 11.6366444,36.7019333 12.5544222,35.7794889 L26.5917556,21.7452667 C28.7679778,19.5690444 28.7057556,17.1781556 26.6524222,15.1248222 C24.5990889,13.0699333 22.1770889,12.9797111 20.0008667,15.1543778 L10.8168667,24.3399333 C9.89753333,25.2592667 8.60953333,25.2592667 7.6902,24.3399333 C6.77086667,23.4206 6.74131111,22.1030444 7.66064444,21.1821556 L16.6610889,12.1817111 C20.7988667,8.04393333 25.5495333,8.2586 29.5333111,12.2439333 C33.6415333,16.3506 33.5793111,21.0701556 29.5644222,25.0850444 L15.7137556,38.9372667 C14.7944222,39.8566 13.5064222,39.8566 12.5870889,38.9372667" id="Fill-1" fill="#FEFEFE"></path>
                    <g id="Group-5" transform="translate(0.000000, 0.738111)">
                        <mask id="mask-2" fill="white">
                            <use xlink:href="#path-1"></use>
                        </mask>
                        <g id="Clip-4"></g>
                        <path d="M20.0078667,1.50686667 C20.9272,2.4262 20.9583111,3.74375556 20.0405333,4.66464444 L6.0032,18.6988667 C3.82697778,20.8750889 3.8892,23.2659778 5.94253333,25.3193111 C7.99586667,27.3726444 10.4163111,27.4659778 12.5925333,25.2897556 L21.7780889,16.1042 C22.6974222,15.1848667 23.9838667,15.1848667 24.9047556,16.1042 C25.8240889,17.0235333 25.8536444,18.3410889 24.9343111,19.2619778 L15.9338667,28.2624222 C11.7960889,32.4002 7.04542222,32.1855333 3.06164444,28.2002 C-1.04657778,24.0935333 -0.984355556,19.3739778 3.03053333,15.3590889 L16.8812,1.50686667 C17.8005333,0.587533333 19.0885333,0.587533333 20.0078667,1.50686667" id="Fill-3" fill="#FEFEFE" mask="url(#mask-2)"></path>
                    </g>
                    <path d="M90.2629778,9.17062222 C87.8783111,9.17062222 85.6243111,9.60306667 83.5009778,10.2984 C82.2440889,10.6872889 81.5503111,11.6408444 81.5503111,12.8526222 L81.5503111,29.8035111 C81.5503111,31.1039556 82.5038667,32.0139556 83.8043111,32.0139556 C85.0612,32.0139556 86.0147556,31.1039556 86.0147556,29.8035111 L86.0147556,13.8932889 C87.3587556,13.5028444 88.7883111,13.2866222 90.2629778,13.2866222 C93.0800889,13.2866222 94.5547556,14.8032889 94.5547556,17.5364 L94.5547556,29.8035111 C94.5547556,31.1039556 95.5083111,32.0139556 96.8087556,32.0139556 C98.0640889,32.0139556 99.0192,31.1039556 99.0192,29.8035111 L99.0192,17.7075111 C99.0192,12.1184 96.0714222,9.17062222 90.2629778,9.17062222" id="Fill-6" fill="#FEFEFE"></path>
                    <g id="Group-10" transform="translate(35.777778, 0.738111)">
                        <mask id="mask-4" fill="white">
                            <use xlink:href="#path-3"></use>
                        </mask>
                        <g id="Clip-9"></g>
                        <path d="M3.52411111,0.817288889 C2.093,0.817288889 0.923222222,1.98706667 0.923222222,3.41973333 C0.923222222,4.89128889 2.093,6.06262222 3.52411111,6.06262222 C4.95366667,6.06262222 6.125,4.89128889 6.125,3.41973333 C6.125,1.98706667 4.95366667,0.817288889 3.52411111,0.817288889" id="Fill-8" fill="#FEFEFE" mask="url(#mask-4)"></path>
                    </g>
                    <path d="M39.3018889,9.17062222 C38.0014444,9.17062222 37.0478889,10.0806222 37.0478889,11.3810667 L37.0478889,29.8035111 C37.0478889,31.1039556 38.0014444,32.0139556 39.3018889,32.0139556 C40.6023333,32.0139556 41.5123333,31.1039556 41.5123333,29.8035111 L41.5123333,11.3810667 C41.5123333,10.0806222 40.6023333,9.17062222 39.3018889,9.17062222" id="Fill-11" fill="#FEFEFE"></path>
                    <path d="M117.760222,9.17062222 C116.459778,9.17062222 115.507778,10.0806222 115.507778,11.3810667 L115.507778,29.8035111 C115.507778,31.1039556 116.459778,32.0139556 117.760222,32.0139556 C119.060667,32.0139556 119.970667,31.1039556 119.970667,29.8035111 L119.970667,11.3810667 C119.970667,10.0806222 119.060667,9.17062222 117.760222,9.17062222" id="Fill-13" fill="#FEFEFE"></path>
                    <path d="M54.9638444,19.4427333 L51.1496222,18.0116222 C50.1525111,17.6227333 48.6358444,17.0160667 48.6358444,15.5414 C48.6358444,14.1118444 50.0234,13.2438444 51.8854,13.2438444 C53.4907333,13.2438444 54.4878444,13.6342889 55.6140667,14.0247333 C56.0045111,14.1554 56.4385111,14.2845111 56.8709556,14.2845111 C57.9116222,14.2845111 58.8651778,13.5051778 58.8651778,12.2467333 C58.8651778,11.4674 58.4311778,10.8171778 57.6938444,10.4267333 C56.1771778,9.6894 53.8796222,9.16984444 51.7998444,9.16984444 C47.4225111,9.16984444 44.3005111,11.5545111 44.3005111,15.4978444 C44.3005111,19.2700667 46.7287333,20.5705111 48.5922889,21.3062889 L52.1451778,22.6938444 C53.5762889,23.2569556 55.0945111,24.0814 55.0945111,25.4238444 C55.0945111,26.8985111 53.7505111,27.9391778 51.5836222,27.9391778 C49.6765111,27.9391778 48.3760667,27.4180667 47.3789556,27.0711778 C46.9885111,26.9420667 46.5980667,26.8114 46.2947333,26.8114 C45.0798444,26.8114 44.3005111,27.6342889 44.3005111,28.8491778 C44.3005111,29.7156222 44.7780667,30.3222889 45.5154,30.6691778 C46.9885111,31.4065111 49.2425111,32.0131778 51.7998444,32.0131778 C56.7838444,32.0131778 59.4282889,29.0669556 59.4282889,25.3818444 C59.4282889,22.2162889 57.7809556,20.4834 54.9638444,19.4427333" id="Fill-15" fill="#FEFEFE"></path>
                    <path d="M74.3232,18.5328889 L65.7863111,18.5328889 L65.7863111,17.7535556 C65.7863111,14.9784444 67.0852,13.2875556 70.0765333,13.2875556 C73.0663111,13.2875556 74.3232,14.9784444 74.3232,17.8826667 L74.3232,18.5328889 Z M70.0765333,9.16844444 C64.7005333,9.16844444 61.3218667,12.6373333 61.3218667,17.8826667 L61.3218667,23.2991111 C61.3218667,28.2862222 64.4843111,32.0133333 70.0765333,32.0133333 C71.7223111,32.0133333 74.8863111,31.5357778 76.8369778,30.5402222 C77.6614222,30.1497778 78.0083111,29.4544444 78.0083111,28.6766667 C78.0083111,27.5488889 77.1418667,26.6388889 75.9720889,26.6388889 C75.5365333,26.6388889 75.1040889,26.768 74.4538667,27.0293333 C73.3260889,27.4602222 71.9820889,27.9393333 70.0765333,27.9393333 C66.9109778,27.9393333 65.7863111,25.7288889 65.7863111,23.4748889 L65.7863111,22.6488889 L76.0576444,22.6488889 C77.7905333,22.6488889 78.7876444,21.2628889 78.7876444,20.006 L78.7876444,17.8826667 C78.7876444,12.6793333 75.4074222,9.16844444 70.0765333,9.16844444 L70.0765333,9.16844444 Z" id="Fill-17" fill="#FEFEFE"></path>
                    <g id="Group-21" transform="translate(115.111111, 0.738111)">
                        <mask id="mask-6" fill="white">
                            <use xlink:href="#path-5"></use>
                        </mask>
                        <g id="Clip-20"></g>
                        <path d="M2.6278,0.817288889 C1.19668889,0.817288889 0.0269111111,1.98706667 0.0269111111,3.41973333 C0.0269111111,4.89128889 1.19668889,6.06262222 2.6278,6.06262222 C4.05735556,6.06262222 5.22868889,4.89128889 5.22868889,3.41973333 C5.22868889,1.98706667 4.05735556,0.817288889 2.6278,0.817288889" id="Fill-19" fill="#FEFEFE" mask="url(#mask-6)"></path>
                    </g>
                    <g id="Group-24" transform="translate(121.333333, 8.515889)">
                        <mask id="mask-8" fill="white">
                            <use xlink:href="#path-7"></use>
                        </mask>
                        <g id="Clip-23"></g>
                        <path d="M13.6944889,18.9021778 C12.3940444,19.2506222 11.0936,19.4217333 9.7076,19.4217333 C6.93093333,19.4217333 5.15604444,18.8601778 5.15604444,16.5610667 C5.15604444,14.3506222 6.93093333,13.6568444 9.62048889,13.6568444 L13.6944889,13.6568444 L13.6944889,18.9021778 Z M9.7076,0.655511111 C6.67115556,0.655511111 4.24448889,1.60751111 3.03115556,2.34484444 C2.38093333,2.73373333 1.99048889,3.38395556 1.99048889,4.12128889 C1.99048889,5.33462222 3.03115556,6.20262222 4.07026667,6.20262222 C4.7656,6.20262222 5.32871111,5.90084444 6.06604444,5.5524 C7.19071111,4.98928889 8.4056,4.77151111 9.88026667,4.77151111 C12.4360444,4.77151111 13.6944889,6.11551111 13.6944889,7.8064 L13.6944889,9.53928889 L9.7496,9.53928889 C4.80915556,9.53928889 0.6916,11.4464 0.6916,16.4755111 C0.6916,21.4610667 4.28804444,23.4972889 9.7496,23.4972889 C12.1762667,23.4972889 14.6916,23.0632889 16.4244889,22.4566222 C17.5958222,22.0661778 18.1589333,21.0255111 18.1589333,20.0299556 L18.1589333,7.76284444 C18.1589333,2.99506667 14.3447111,0.655511111 9.7076,0.655511111 L9.7076,0.655511111 Z" id="Fill-22" fill="#FEFEFE" mask="url(#mask-8)"></path>
                    </g>
                    <g id="Group-27" transform="translate(101.111111, 0.738111)">
                        <mask id="mask-10" fill="white">
                            <use xlink:href="#path-9"></use>
                        </mask>
                        <g id="Clip-26"></g>
                        <path d="M5.34395556,13.1128667 L9.81928889,13.1128667 C11.2504,13.1128667 12.0312889,12.2028667 12.0312889,10.9895333 C12.0312889,9.77464444 11.2504,8.8662 9.81928889,8.8662 L5.34395556,8.8662 L5.34395556,7.29508889 L5.34395556,3.02975556 C5.34395556,1.72931111 4.43395556,0.817755556 3.13351111,0.817755556 C1.83306667,0.817755556 0.881066667,1.72931111 0.881066667,3.02975556 L0.881066667,7.29508889 L0.881066667,10.6426444 L0.881066667,11.7688667 L0.881066667,19.2246444 L0.881066667,22.2175333 C0.881066667,28.0617556 4.38573333,31.2693111 10.0121778,31.2739778 C11.2006222,31.2739778 12.0312889,30.4448667 12.0312889,29.2564222 C12.0312889,28.0710889 11.2006222,27.2015333 10.0121778,27.2015333 C7.11728889,27.1937556 5.34395556,25.5479778 5.34395556,22.4773111 L5.34395556,19.2246444 L5.34395556,13.1128667 Z" id="Fill-25" fill="#FEFEFE" mask="url(#mask-10)"></path>
                    </g>
                </g>
            </g>
        </g>
    </g>
</svg>