<?xml version="1.0" encoding="UTF-8"?>
<svg width="150px" height="42px" viewBox="0 0 150 42" version="1.1" xmlns="http://www.w3.org/2000/svg" xmlns:xlink="http://www.w3.org/1999/xlink">
    <!-- Generator: Sketch 55.1 (78136) - https://sketchapp.com -->
    <title>logo</title>
    <desc>Created with Sketch.</desc>
    <defs>
        <polygon id="path-1" points="0.988666667 0.869923077 6.56366667 0.869923077 6.56366667 6.44652692 0.988666667 6.44652692"></polygon>
        <polygon id="path-3" points="0.0283333333 0.869923077 5.60333333 0.869923077 5.60333333 6.44652692 0.0283333333 6.44652692"></polygon>
        <polygon id="path-5" points="0.7405 0.695938462 19.455 0.695938462 19.455 24.9826692 0.7405 24.9826692"></polygon>
    </defs>
    <g id="Desktop" stroke="none" stroke-width="1" fill="none" fill-rule="evenodd">
        <g id="Home-Copy-6" transform="translate(-70.000000, -75.000000)">
            <g id="logo" transform="translate(70.000000, 74.000000)">
                <g id="Group-27">
                    <path d="M13.4856667,41.3974231 C12.5006667,40.42 12.469,39.0191923 13.4523333,38.0401154 L28.4906667,23.1191154 C30.8223333,20.8053846 30.7556667,18.2634231 28.5556667,16.0803462 C26.3573333,13.8956154 23.7606667,13.7980385 21.4306667,16.1117692 L11.589,25.8777308 C10.604,26.8551538 9.224,26.8551538 8.24066667,25.8777308 C7.254,24.9003077 7.22233333,23.4995 8.20733333,22.5204231 L17.8506667,12.9512692 C22.284,8.55203846 27.374,8.78026923 31.644,13.0174231 C36.044,17.3835769 35.9773333,22.4013462 31.6756667,26.6699231 L16.8356667,41.3974231 C15.8506667,42.3748462 14.4706667,42.3748462 13.4856667,41.3974231" id="Fill-1" fill="#086DF2"></path>
                    <path d="M21.4365,2.38666538 C22.4231667,3.36408846 22.4548333,4.76489615 21.4715,5.74397308 L6.4315,20.6649731 C4.1015,22.9787038 4.16816667,25.5206654 6.3665,27.7037423 C8.5665,29.8868192 11.1598333,29.98605 13.4915,27.6723192 L23.3348333,17.9063577 C24.3181667,16.9289346 25.6981667,16.9289346 26.6831667,17.9063577 C27.6681667,18.8837808 27.7015,20.2845885 26.7148333,21.2636654 L17.0731667,30.8328192 C12.6398333,35.23205 7.54816667,35.0038192 3.27983333,30.7666654 C-1.12016667,26.4005115 -1.0535,21.3827423 3.2465,17.1141654 L18.0865,2.38666538 C19.0715,1.40924231 20.4515,1.40924231 21.4365,2.38666538" id="Fill-3" fill="#183868"></path>
                    <path d="M96.7098333,9.74909231 C94.1565,9.74909231 91.7415,10.2105154 89.4648333,10.9481308 C88.1198333,11.3615923 87.3748333,12.3754 87.3748333,13.6654 L87.3748333,31.6857077 C87.3748333,33.0683231 88.3981667,34.0358231 89.7915,34.0358231 C91.1365,34.0358231 92.1598333,33.0683231 92.1598333,31.6857077 L92.1598333,14.7718231 C93.5998333,14.3567077 95.1315,14.1268231 96.7098333,14.1268231 C99.7298333,14.1268231 101.309833,15.7393231 101.309833,18.6434769 L101.309833,31.6857077 C101.309833,33.0683231 102.329833,34.0358231 103.723167,34.0358231 C105.069833,34.0358231 106.0915,33.0683231 106.0915,31.6857077 L106.0915,18.8270538 C106.0915,12.8831308 102.933167,9.74909231 96.7098333,9.74909231" id="Fill-6" fill="#6C6E70"></path>
                    <g id="Group-10" transform="translate(38.333333, 0.784585)">
                        <mask id="mask-2" fill="white">
                            <use xlink:href="#path-1"></use>
                        </mask>
                        <g id="Clip-9"></g>
                        <path d="M3.777,0.869757692 C2.24366667,0.869757692 0.988666667,2.11345 0.988666667,3.63498846 C0.988666667,5.20118077 2.24366667,6.44652692 3.777,6.44652692 C5.30866667,6.44652692 6.56366667,5.20118077 6.56366667,3.63498846 C6.56366667,2.11345 5.30866667,0.869757692 3.777,0.869757692" id="Fill-8" fill="#6C6E70" mask="url(#mask-2)"></path>
                    </g>
                    <path d="M42.1103333,9.74909231 C40.717,9.74909231 39.6953333,10.7165923 39.6953333,12.0992077 L39.6953333,31.6857077 C39.6953333,33.0683231 40.717,34.0358231 42.1103333,34.0358231 C43.5036667,34.0358231 44.4786667,33.0683231 44.4786667,31.6857077 L44.4786667,12.0992077 C44.4786667,10.7165923 43.5036667,9.74909231 42.1103333,9.74909231" id="Fill-11" fill="#6C6E70"></path>
                    <path d="M126.172833,9.74909231 C124.7795,9.74909231 123.757833,10.7165923 123.757833,12.0992077 L123.757833,31.6857077 C123.757833,33.0683231 124.7795,34.0358231 126.172833,34.0358231 C127.566167,34.0358231 128.541167,33.0683231 128.541167,31.6857077 L128.541167,12.0992077 C128.541167,10.7165923 127.566167,9.74909231 126.172833,9.74909231" id="Fill-13" fill="#6C6E70"></path>
                    <path d="M58.8893333,20.6710923 L54.8026667,19.1495538 C53.7343333,18.7360923 52.111,18.0910923 52.111,16.5232462 C52.111,15.0033615 53.596,14.0805154 55.5926667,14.0805154 C57.3126667,14.0805154 58.3793333,14.4956308 59.586,14.9107462 C60.0043333,15.0496692 60.4693333,15.1869385 60.9343333,15.1869385 C62.0493333,15.1869385 63.071,14.3583615 63.071,13.0204 C63.071,12.1918231 62.6043333,11.5005154 61.8143333,11.0854 C60.1893333,10.3014769 57.7293333,9.74909231 55.4993333,9.74909231 C50.8093333,9.74909231 47.466,12.2844385 47.466,16.4769385 C47.466,20.4875154 50.066,21.8701308 52.0626667,22.6524 L55.871,24.1276308 C57.4026667,24.7263231 59.0293333,25.6028615 59.0293333,27.0301308 C59.0293333,28.5979769 57.591,29.7044 55.2676667,29.7044 C53.226,29.7044 51.8326667,29.1503615 50.7626667,28.7815538 C50.3443333,28.6442846 49.926,28.5053615 49.6026667,28.5053615 C48.301,28.5053615 47.466,29.3802462 47.466,30.6719 C47.466,31.5930923 47.976,32.2380923 48.7676667,32.6069 C50.3443333,33.3908231 52.7593333,34.0358231 55.4993333,34.0358231 C60.8393333,34.0358231 63.6726667,30.9017846 63.6726667,26.9854769 C63.6726667,23.6199 61.9093333,21.7775154 58.8893333,20.6710923" id="Fill-15" fill="#6C6E70"></path>
                    <path d="M79.633,19.7035923 L70.4846667,19.7035923 L70.4846667,18.8750154 C70.4846667,15.9245538 71.8763333,14.1268231 75.0813333,14.1268231 C78.2846667,14.1268231 79.633,15.9245538 79.633,19.0122846 L79.633,19.7035923 Z M75.0813333,9.74909231 C69.3213333,9.74909231 65.7013333,13.4355154 65.7013333,19.0122846 L65.7013333,24.7726308 C65.7013333,30.0732077 69.0913333,34.0358231 75.0813333,34.0358231 C76.8463333,34.0358231 80.2346667,33.5297462 82.3246667,32.4696308 C83.2096667,32.0545154 83.5813333,31.3169 83.5813333,30.4883231 C83.5813333,29.2892846 82.6513333,28.3217846 81.398,28.3217846 C80.9313333,28.3217846 80.4696667,28.4590538 79.773,28.7369 C78.563,29.1966692 77.1246667,29.7044 75.0813333,29.7044 C71.6896667,29.7044 70.4846667,27.3542846 70.4846667,24.9578615 L70.4846667,24.0813231 L81.4896667,24.0813231 C83.348,24.0813231 84.4163333,22.6060923 84.4163333,21.2714385 L84.4163333,19.0122846 C84.4163333,13.4818231 80.793,9.74909231 75.0813333,9.74909231 L75.0813333,9.74909231 Z" id="Fill-17" fill="#6C6E70"></path>
                    <g id="Group-21" transform="translate(123.333333, 0.784585)">
                        <mask id="mask-4" fill="white">
                            <use xlink:href="#path-3"></use>
                        </mask>
                        <g id="Clip-20"></g>
                        <path d="M2.81666667,0.869757692 C1.28333333,0.869757692 0.0283333333,2.11345 0.0283333333,3.63498846 C0.0283333333,5.20118077 1.28333333,6.44652692 2.81666667,6.44652692 C4.34833333,6.44652692 5.60333333,5.20118077 5.60333333,3.63498846 C5.60333333,2.11345 4.34833333,0.869757692 2.81666667,0.869757692" id="Fill-19" fill="#6C6E70" mask="url(#mask-4)"></path>
                    </g>
                    <g id="Group-24" transform="translate(130.000000, 9.053815)">
                        <mask id="mask-6" fill="white">
                            <use xlink:href="#path-5"></use>
                        </mask>
                        <g id="Clip-23"></g>
                        <path d="M14.6721667,20.0972077 C13.2788333,20.4660154 11.8855,20.6495923 10.4005,20.6495923 C7.42716667,20.6495923 5.52383333,20.0509 5.52383333,17.6081692 C5.52383333,15.2580538 7.42716667,14.5204385 10.3071667,14.5204385 L14.6721667,14.5204385 L14.6721667,20.0972077 Z M10.4005,0.695938462 C7.14883333,0.695938462 4.54716667,1.70974615 3.24883333,2.49366923 C2.55216667,2.90713077 2.13383333,3.59843846 2.13383333,4.38236154 C2.13383333,5.67236154 3.24883333,6.59520769 4.36216667,6.59520769 C5.1055,6.59520769 5.70883333,6.27270769 6.49883333,5.9039 C7.7055,5.30355385 9.0055,5.07366923 10.5855,5.07366923 C13.3255,5.07366923 14.6721667,6.50259231 14.6721667,8.30032308 L14.6721667,10.1427077 L10.4455,10.1427077 C5.15216667,10.1427077 0.7405,12.1703231 0.7405,17.5172077 C0.7405,22.8161308 4.59383333,24.9826692 10.4455,24.9826692 C13.0471667,24.9826692 15.7405,24.5212462 17.5971667,23.8762462 C18.8521667,23.4611308 19.4555,22.3547077 19.4555,21.2945923 L19.4555,8.25401538 C19.4555,3.18497692 15.3688333,0.695938462 10.4005,0.695938462 L10.4005,0.695938462 Z" id="Fill-22" fill="#6C6E70" mask="url(#mask-6)"></path>
                    </g>
                    <path d="M114.060167,14.7268385 L118.855167,14.7268385 C120.386833,14.7268385 121.2235,13.7593385 121.2235,12.4693385 C121.2235,11.1776846 120.386833,10.2101846 118.855167,10.2101846 L114.060167,10.2101846 L114.060167,8.54145385 L114.060167,4.00495385 C114.060167,2.62233846 113.085167,1.65483846 111.691833,1.65483846 C110.2985,1.65483846 109.276833,2.62233846 109.276833,4.00495385 L109.276833,8.54145385 L109.276833,12.1005308 L109.276833,13.2979154 L109.276833,21.2248 L109.276833,24.4051462 C109.276833,30.6203 113.031833,34.0305308 119.061833,34.0354923 C120.3335,34.0354923 121.2235,33.1523385 121.2235,31.8904538 C121.2235,30.6302231 120.3335,29.7040692 119.061833,29.7040692 C115.9585,29.6974538 114.060167,27.9476846 114.060167,24.6813385 L114.060167,21.2248 L114.060167,14.7268385 Z" id="Fill-25" fill="#6C6E70"></path>
                </g>
            </g>
        </g>
    </g>
</svg>