<?xml version="1.0" encoding="UTF-8"?>
<svg width="22px" height="21px" viewBox="0 0 22 21" version="1.1" xmlns="http://www.w3.org/2000/svg" xmlns:xlink="http://www.w3.org/1999/xlink">
    <!-- Generator: Sketch 55.1 (78136) - https://sketchapp.com -->
    <title>“</title>
    <desc>Created with Sketch.</desc>
    <g id="Desktop" stroke="none" stroke-width="1" fill="none" fill-rule="evenodd">
        <g id="Career-Copy" transform="translate(-916.000000, -3732.000000)" fill="#FFFFFF" fill-rule="nonzero">
            <path d="M924.367188,3735.74219 C922.570304,3736.08073 921.307295,3737.3828 920.578125,3739.64844 C920.21354,3740.76823 920.03125,3741.87499 920.03125,3742.96875 C920.03125,3743.09896 920.03776,3743.20963 920.050781,3743.30078 C920.063802,3743.39193 920.083333,3743.59375 920.109375,3743.90625 L924.367188,3743.90625 L924.367188,3752.42188 L916.046875,3752.42188 L916.046875,3744.57031 C916.046875,3740.71613 916.815096,3737.74741 918.351562,3735.66406 C919.888029,3733.58072 921.893217,3732.38281 924.367188,3732.07031 L924.367188,3735.74219 Z M937.53125,3735.74219 C936.098951,3735.97656 935.011722,3736.78385 934.269531,3738.16406 C933.52734,3739.54428 933.15625,3741.1328 933.15625,3742.92969 C933.15625,3743.08594 933.16276,3743.24219 933.175781,3743.39844 C933.188802,3743.55469 933.221354,3743.72396 933.273438,3743.90625 L937.53125,3743.90625 L937.53125,3752.42188 L929.171875,3752.42188 L929.171875,3744.57031 C929.171875,3741.47134 929.82291,3738.70444 931.125,3736.26953 C932.42709,3733.83462 934.562485,3732.4349 937.53125,3732.07031 L937.53125,3735.74219 Z" id="“"></path>
        </g>
    </g>
</svg>