<?xml version="1.0" encoding="UTF-8"?>
<svg width="22px" height="21px" viewBox="0 0 22 21" version="1.1" xmlns="http://www.w3.org/2000/svg" xmlns:xlink="http://www.w3.org/1999/xlink">
    <!-- Generator: Sketch 54.1 (76490) - https://sketchapp.com -->
    <title>“</title>
    <desc>Created with Sketch.</desc>
    <g id="Desktop" stroke="none" stroke-width="1" fill="none" fill-rule="evenodd">
        <g id="Experience-Copy" transform="translate(-962.000000, -877.000000)" fill="#175BDF" fill-rule="nonzero">
            <g id="Group-5" transform="translate(881.000000, 552.000000)">
                <path d="M89.3671875,328.742188 C87.5703035,329.080731 86.3072953,330.382801 85.578125,332.648438 C85.2135398,333.768235 85.03125,334.874995 85.03125,335.96875 C85.03125,336.098959 85.0377604,336.209635 85.0507812,336.300781 C85.0638021,336.391928 85.0833332,336.593748 85.109375,336.90625 L89.3671875,336.90625 L89.3671875,345.421875 L81.046875,345.421875 L81.046875,337.570312 C81.046875,333.716127 81.8150965,330.747406 83.3515625,328.664062 C84.8880285,326.580719 86.8932168,325.382814 89.3671875,325.070312 L89.3671875,328.742188 Z M102.53125,328.742188 C101.098951,328.976564 100.011722,329.783847 99.2695312,331.164062 C98.52734,332.544278 98.15625,334.132804 98.15625,335.929688 C98.15625,336.085938 98.1627604,336.242187 98.1757812,336.398438 C98.1888021,336.554688 98.2213539,336.723957 98.2734375,336.90625 L102.53125,336.90625 L102.53125,345.421875 L94.171875,345.421875 L94.171875,337.570312 C94.171875,334.471339 94.8229102,331.704439 96.125,329.269531 C97.4270898,326.834623 99.5624852,325.434898 102.53125,325.070312 L102.53125,328.742188 Z" id="“"></path>
            </g>
        </g>
    </g>
</svg>