<svg width="83" height="171" xmlns="http://www.w3.org/2000/svg"><path d="M10.2 160.1c-.2-2-.2-5.7 1.6-10 2-5 8.2-7 8.2-7s1.5 7-1.4 11.8c-1 1.5-2.7 3-4.4 4.2 2.7-.8 5.6-1.8 8.8-3.2-.5-1.8-1.1-5.5-.1-10 1-5 6.7-8.2 6.7-8.2s2.6 6.7.6 11.7c-.6 1.6-2.1 3.4-3.6 4.8a78.8 78.8 0 0 0 8.4-4.6c-.8-1.6-2.1-5.1-1.9-9.7.2-5.1 5-9 5-9s3.8 5.9 2.7 11c-.4 2-1.7 4-2.9 5.7 2.6-1.9 5.2-4 7.7-6.4-1-1.5-3-4.6-3.5-9-.6-5 3.4-9.7 3.4-9.7s4.5 5 4.4 10.3c0 1.8-1 4-1.8 5.8 2.2-2.4 4.4-5 6.4-7.7a20 20 0 0 1-4.8-8c-1.5-4.7 1.6-10 1.6-10s5.2 4.2 6 9.3c.2 1.6-.2 3.8-.7 5.6 1.8-2.6 3.4-5.4 4.8-8.3-1.4-1-4-3.2-6-7-2.2-4.3-.1-9.8-.1-9.8s5.8 3 7.3 7.8c.5 1.7.5 4 .3 5.9 1.4-3 2.5-6.1 3.5-9.3a19 19 0 0 1-7.1-5.8c-3-3.7-1.8-9.4-1.8-9.4s6 2 8.4 6.3a16 16 0 0 1 1.3 6c.8-3.4 1.5-6.8 1.8-10.2-1.5-.4-4.8-1.5-7.9-4.4-3.4-3.1-3.3-8.8-3.3-8.8s6.2.9 9.2 4.6c1 1.4 1.8 3.7 2.3 5.6.3-3.6.3-7.2.1-10.7-1.5-.1-4.9-.6-8.5-3-3.8-2.4-4.7-7.9-4.7-7.9s6.2-.2 9.7 3c1.4 1.2 2.5 3.6 3.3 5.4-.4-3.8-1-7.6-2-11.2-1.4.1-4.8.3-8.7-1.3-4-1.8-5.8-7-5.8-7s5.9-1.2 9.8 1.3c1.5 1 3 2.9 4 4.5-1-3.7-2.4-7.2-3.9-10.5-1.3.4-4.6 1-8.6.2-4.2-1-6.8-5.7-6.8-5.7s5.5-2.2 9.7-.5c1.6.7 3.4 2.3 4.7 3.7a81.4 81.4 0 0 0-5.6-9.8 17 17 0 0 1-8.4 1.8C43.3 43 40 39 40 39s5-3 9.3-2.2c1.8.4 4 2 5.5 3.1a71.2 71.2 0 0 0-7.4-9c-1 .8-3.7 2.7-8 3.3-4.1.5-8-2.8-8-2.8s4.3-3.9 8.6-3.7c2 0 4.7 1.4 6.3 2.2a81 81 0 0 0-9.4-7.7c-.7 1-3 3.3-7 4.5-4 1.3-8.2-1.3-8.2-1.3s3.4-4.4 7.6-5c2-.3 4.8.5 6.5 1a77.9 77.9 0 0 0-10.3-6 16 16 0 0 1-6.1 5.7c-3.6 1.9-8.2.1-8.2.1s2.6-4.8 6.5-6.1c2.1-.7 5.4-.3 7 0a74.1 74.1 0 0 0-7.1-2.9c-.8.4-3.6 1.6-6.1.8C7.7 11.7 5.9 9 5.9 9s3.8-1.5 6.1-1c3 .4 5.3 3.2 5.8 3.8 1.6.6 3.5 1.2 5.6 2.1-1.4-1-4-2.9-4.9-4.7-2-3.7-.5-9-.5-9s4.6 2 5.9 5.7c1.3 4.2.7 7.6.5 8.4 3.1 1.4 6.7 3.2 10.5 5.7a16.4 16.4 0 0 1-3.8-5.4c-1.3-4 1.1-9.1 1.1-9.1s4.2 2.7 4.8 6.8c.7 4.3-.5 7.5-.9 8.4a81.5 81.5 0 0 1 9.2 7c-1-1.6-2.3-3.7-2.5-5.5-.6-4.3 2.7-9 2.7-9s3.7 3.5 3.6 7.7c0 4.2-1.6 7.2-2.2 8.2 2.6 2.5 5.2 5.3 7.6 8.4-.8-1.7-1.5-4-1.5-5.7.2-4.4 4.4-8.5 4.4-8.5s3.1 4.2 2.3 8.4c-.9 4.1-3 6.8-3.8 7.8 2.2 3 4.3 6.3 6.1 9.8-.4-1.8-.8-4.3-.5-6 1-4.5 5.9-7.8 5.9-7.8s2.4 4.7.8 8.8c-1.6 4-4.1 6.4-5.1 7.2 1.6 3.3 3 6.7 4.2 10.3-.1-1.9 0-4.2.6-5.8 1.7-4.3 7.3-6.8 7.3-6.8s1.6 5.2-.8 9a17.9 17.9 0 0 1-6.3 6.3 77 77 0 0 1 2.3 10.3c.2-1.8.7-3.7 1.5-5 2.5-4 8.5-5.6 8.5-5.6s.7 5.6-2.3 9a18.3 18.3 0 0 1-7.3 5c.4 3.5.5 6.9.3 10.4.6-1.7 1.4-3.6 2.4-4.7 3.2-3.6 9.5-4 9.5-4s-.3 5.6-3.9 8.5a18.6 18.6 0 0 1-8.3 3.9c-.2 3.2-.6 6.5-1.3 9.6.9-1.5 2-3.2 3.2-4.1 3.9-3 10.3-2.4 10.3-2.4s-1.3 5.7-5.5 8a19 19 0 0 1-8.9 2.3c-.8 3.2-1.8 6.3-3 9.3 1.1-1.4 2.5-3 4-3.7 4.3-2.3 10.6-.5 10.6-.5s-2.3 5.4-6.8 7c-4.2 1.4-7.8 1-9.4.8-1.4 3-3 5.9-4.7 8.7 1.5-1.3 3.2-2.6 4.8-3 4.8-1.6 10.8 1.3 10.8 1.3s-3.3 5-8.1 5.8c-4.5.7-8-.3-9.6-.9a83 83 0 0 1-5.7 7.5c1.5-.9 3.3-1.7 4.8-2 5.1-.7 10.7 3.4 10.7 3.4s-4.2 4.5-9.2 4.3c-4.5 0-7.8-1.6-9.3-2.4a74 74 0 0 1-6.6 6 14 14 0 0 1 4.8-.9c5.2.2 10.1 5.2 10.1 5.2s-5 3.8-10 2.8c-4.4-.9-7.4-3-8.8-4a56.6 56.6 0 0 1-7.8 4.6c1.7-.3 3.6-.4 5.1-.1 5.3 1.1 9.3 7 9.3 7s-5.7 3-10.5 1c-4.4-1.6-7-4.3-8.2-5.7a79 79 0 0 1-8.3 3.3c1.8 0 3.7.2 5.1.8 5.1 2.1 8.1 8.8 8.1 8.8s-6.2 1.9-10.8-1c-4-2.4-6.2-5.5-7.2-7.1-7.3 2-11.8 2.2-11.8 2.2L1 163l-.1-1.3s3.5-.3 9.4-1.6" fill="#175BDF" fill-rule="evenodd"/></svg>