<svg width="83" height="171" xmlns="http://www.w3.org/2000/svg"><path d="M72.8 160.1c.2-2 .2-5.7-1.6-10-2-5-8.2-7-8.2-7s-1.5 7 1.4 11.8c1 1.5 2.7 3 4.4 4.2-2.7-.8-5.6-1.8-8.8-3.2.5-1.8 1.1-5.5.1-10-1-5-6.7-8.2-6.7-8.2s-2.6 6.7-.6 11.7c.6 1.6 2.1 3.4 3.6 4.8a78.8 78.8 0 0 1-8.4-4.6c.8-1.6 2.1-5.1 1.9-9.7-.2-5.1-5-9-5-9s-3.8 5.9-2.7 11c.4 2 1.7 4 2.9 5.7-2.6-1.9-5.2-4-7.7-6.4 1-1.5 3-4.6 3.5-9 .6-5-3.4-9.7-3.4-9.7s-4.5 5-4.4 10.3c0 1.8 1 4 1.8 5.8-2.2-2.4-4.4-5-6.4-7.7a20 20 0 0 0 4.8-8c1.5-4.7-1.6-10-1.6-10s-5.2 4.2-6 9.3c-.2 1.6.2 3.8.7 5.6a81.9 81.9 0 0 1-4.8-8.3c1.4-1 4-3.2 6-7 2.2-4.3.1-9.8.1-9.8s-5.8 3-7.3 7.8c-.5 1.7-.5 4-.3 5.9a76 76 0 0 1-3.5-9.3 19 19 0 0 0 7.1-5.8c3-3.7 1.8-9.4 1.8-9.4s-6 2-8.4 6.3a16 16 0 0 0-1.3 6c-.8-3.4-1.5-6.8-1.8-10.2 1.5-.4 4.8-1.5 7.9-4.4 3.4-3.1 3.3-8.8 3.3-8.8s-6.2.9-9.2 4.6c-1 1.4-1.8 3.7-2.3 5.6-.3-3.6-.3-7.2-.1-10.7 1.5-.1 4.9-.6 8.5-3 3.8-2.4 4.7-7.9 4.7-7.9s-6.2-.2-9.7 3a16.3 16.3 0 0 0-3.3 5.4c.4-3.8 1-7.6 2-11.2 1.4.1 4.8.3 8.7-1.3 4-1.8 5.8-7 5.8-7s-5.9-1.2-9.8 1.3c-1.5 1-3 2.9-4 4.5 1-3.7 2.4-7.2 3.9-10.5 1.3.4 4.6 1 8.6.2 4.2-1 6.8-5.7 6.8-5.7s-5.5-2.2-9.7-.5c-1.6.7-3.4 2.3-4.7 3.7 1.7-3.5 3.6-6.7 5.6-9.8 1.2.6 4.3 2 8.4 1.8C39.7 43 43 39 43 39s-5-3-9.3-2.2a16 16 0 0 0-5.5 3.1c2.3-3.3 4.8-6.3 7.4-9 1 .8 3.7 2.7 8 3.3 4.1.5 8-2.8 8-2.8s-4.3-3.9-8.6-3.7c-2 0-4.7 1.4-6.3 2.2a81 81 0 0 1 9.4-7.7c.7 1 3 3.3 7 4.5 4 1.3 8.2-1.3 8.2-1.3s-3.4-4.4-7.6-5c-2-.3-4.8.5-6.5 1 3.7-2.5 7.2-4.4 10.3-6a16 16 0 0 0 6.1 5.7c3.6 1.9 8.2.1 8.2.1s-2.6-4.8-6.5-6.1a17 17 0 0 0-7 0c2.7-1.3 5.2-2.2 7.1-2.9.8.4 3.6 1.6 6.1.8 3.8-1.3 5.6-3.9 5.6-3.9s-3.8-1.5-6.1-1c-3 .4-5.3 3.2-5.8 3.8-1.6.6-3.5 1.2-5.6 2.1 1.4-1 4-2.9 4.9-4.7 2-3.7.5-9 .5-9S60.4 2.3 59 6c-1.3 4.2-.7 7.6-.5 8.4a75.8 75.8 0 0 0-10.5 5.7c1.2-1.3 3.2-3.5 3.8-5.4 1.3-4-1.1-9.1-1.1-9.1s-4.2 2.7-4.8 6.8c-.7 4.3.5 7.5.9 8.4a81.5 81.5 0 0 0-9.2 7c1-1.6 2.3-3.7 2.5-5.5.6-4.3-2.7-9-2.7-9s-3.7 3.5-3.6 7.7c0 4.2 1.6 7.2 2.2 8.2a69.3 69.3 0 0 0-7.6 8.4c.8-1.7 1.5-4 1.5-5.7-.2-4.4-4.4-8.5-4.4-8.5s-3.1 4.2-2.3 8.4c.9 4.1 3 6.8 3.8 7.8-2.2 3-4.3 6.3-6.1 9.8.4-1.8.8-4.3.5-6-1-4.5-5.9-7.8-5.9-7.8s-2.4 4.7-.8 8.8c1.6 4 4.1 6.4 5.1 7.2-1.6 3.3-3 6.7-4.2 10.3.1-1.9 0-4.2-.6-5.8-1.7-4.3-7.3-6.8-7.3-6.8s-1.6 5.2.8 9c2.2 3.7 5 5.6 6.3 6.3a77 77 0 0 0-2.3 10.3c-.2-1.8-.7-3.7-1.5-5-2.5-4-8.5-5.6-8.5-5.6s-.7 5.6 2.3 9c2.8 3.1 5.9 4.5 7.3 5a71 71 0 0 0-.3 10.4C11.3 87 10.5 85 9.5 84 6.3 80.4 0 80 0 80s.3 5.6 3.9 8.5c3.4 2.7 6.8 3.6 8.3 3.9.2 3.2.6 6.5 1.3 9.6-.9-1.5-2-3.2-3.2-4.1C6.4 94.9 0 95.5 0 95.5s1.3 5.7 5.5 8a19 19 0 0 0 8.9 2.3c.8 3.2 1.8 6.3 3 9.3-1.1-1.4-2.5-3-4-3.7-4.3-2.3-10.6-.5-10.6-.5s2.3 5.4 6.8 7c4.2 1.4 7.8 1 9.4.8 1.4 3 3 5.9 4.7 8.7a15.2 15.2 0 0 0-4.8-3c-4.8-1.6-10.8 1.3-10.8 1.3s3.3 5 8.1 5.8c4.5.7 8-.3 9.6-.9a83 83 0 0 0 5.7 7.5c-1.5-.9-3.3-1.7-4.8-2-5.1-.7-10.7 3.4-10.7 3.4s4.2 4.5 9.2 4.3c4.5 0 7.8-1.6 9.3-2.4a74 74 0 0 0 6.6 6 14 14 0 0 0-4.8-.9c-5.2.2-10.1 5.2-10.1 5.2s5 3.8 10 2.8c4.4-.9 7.4-3 8.8-4a56.6 56.6 0 0 0 7.8 4.6c-1.7-.3-3.6-.4-5.1-.1-5.3 1.1-9.3 7-9.3 7s5.7 3 10.5 1c4.4-1.6 7-4.3 8.2-5.7a79 79 0 0 0 8.3 3.3c-1.8 0-3.7.2-5.1.8-5.1 2.1-8.1 8.8-8.1 8.8s6.2 1.9 10.8-1c4-2.4 6.2-5.5 7.2-7.1 7.3 2 11.8 2.2 11.8 2.2l.1-1.3.1-1.3s-3.5-.3-9.4-1.6" fill="#175BDF" fill-rule="evenodd"/></svg>