<svg version="1.2" xmlns="http://www.w3.org/2000/svg" viewBox="0 0 15 15" width="15" height="15">
	<title>Vector (2)-svg</title>
	<style>
		.s0 { fill: #0e2041 } 
	</style>
	<path id="Layer" class="s0" d="m0 7.5c0-4 3.1-7.2 7-7.5v4c-1.7 0.3-3 1.7-3 3.5 0 1.9 1.6 3.5 3.5 3.5 0.8 0 1.5-0.3 2.1-0.7l2.8 2.8c-1.3 1.2-3 1.9-4.9 1.9-4.1 0-7.5-3.4-7.5-7.5z"/>
	<path id="Layer" class="s0" d="m13.1 12.4c1.2-1.3 1.9-3 1.9-4.9q0-1.6-0.6-2.9l-3.6 1.6q0.2 0.6 0.2 1.3c0 0.8-0.3 1.5-0.7 2.1z"/>
	<path id="Layer" class="s0" d="m8 4v-4c2.5 0.2 4.7 1.6 6 3.7l-3.7 1.6c-0.6-0.7-1.4-1.1-2.3-1.3z"/>
</svg>