<svg version="1.2" xmlns="http://www.w3.org/2000/svg" viewBox="0 0 15 15" width="15" height="15">
	<title>Vector (4)-svg</title>
	<style>
		.s0 { fill: #0e2041 } 
	</style>
	<path id="Layer" class="s0" d="m1.5 0c-0.8 0-1.5 0.7-1.5 1.5 0 0.8 0.7 1.5 1.5 1.5 0.7 0 1.2-0.4 1.4-1h1.6c1.4 0 2.5 1.1 2.5 2.5v6c0 1.9 1.6 3.5 3.5 3.5h1.6c0.2 0.6 0.7 1 1.4 1 0.8 0 1.5-0.7 1.5-1.5 0-0.8-0.7-1.5-1.5-1.5-0.7 0-1.2 0.4-1.4 1h-1.6c-1.4 0-2.5-1.1-2.5-2.5v-6c0-1.9-1.6-3.5-3.5-3.5h-1.6c-0.2-0.6-0.7-1-1.4-1z"/>
	<path id="Shape 1" class="s0" d="m-93-312h3v1h-3z"/>
</svg>